<svg id="Camada_1" data-name="Camada 1" xmlns="http://www.w3.org/2000/svg" viewBox="0 0 449.24 708.54"><defs><style>.cls-1{fill:#1d1d1b;}</style></defs><path class="cls-1" d="M461.63,123c-14.33-15.27-34.29-34.65-61.7-49-26.51-13.88-53-21-88.61-23.77-6-.47-12-.7-17.89-.7-73.68,0-124.82,35.68-154.75,65.61-33.47,33.47-72.16,90-66.47,169.51,4.2,58.7,37.82,104.83,64.84,141.9l1.15,1.59c4.82,6.61,9.84,13.09,15.15,19.95,16.7,21.57,34,43.87,46.37,72.2l1.42,3.24c5.07,11.5,11.37,25.81,10.61,33.17-.54,5.27-2.81,7.84-5.44,10.82-3.65,4.13-8.2,9.28-5.28,20.31,3.79,14.31,21.83,14.31,42.7,14.31H352.59c17.22,0,35,0,38.83-14.31,2.85-10.78-2.12-16.81-6.12-21.66-2.25-2.75-4.21-5.12-4.63-8.09-2-14.38,13.5-47,28.79-71.28,9.65-15.31,20-28.6,30.05-41.46,4.63-5.94,9-11.56,13.16-17.17,2.2-3,4.42-5.94,6.63-8.91,27.79-37.25,56.53-75.77,60.94-133C526.48,205.24,486.2,149.2,461.63,123ZM420.16,399.24q-3,3.93-6,7.86Q409,414,403.81,420.77c-31.18,40.76-60.67,79.32-67.58,138h-80.1c-8.59-62-38.65-101.54-70.44-143.35l-7.46-9.83L174,399.94c-24.76-32.67-52.82-69.69-56.85-112.95-6.37-68.33,25.24-114.92,52.88-142,35.32-34.57,77.94-52.1,126.67-52.1,5.56,0,11.28.24,17,.7,86,7,155.46,77.16,161.62,163.14C479.87,320.56,449.52,360.56,420.16,399.24Z" transform="translate(-71.65 -49.53)"/><path class="cls-1" d="M361.68,620.2c-7-1.48-17.1-2.15-32.77-2.15-8.12,0-16.93.18-25.45.35s-17.13.35-25.07.35c-3.49,0-7.11-.06-10.95-.13s-8-.13-12-.13c-14.23,0-43.83,0-45.25,18.65a14.93,14.93,0,0,0,4.92,12.75c8.14,7.47,24.49,8.48,39.42,8.48,6.93,0,14.23-.26,21.28-.51s13.51-.48,19.64-.48l14.67,0c11.45,0,24.17.07,35,0,18.41-.16,35.8-.32,37.15-17C383.51,624.82,370.89,622.15,361.68,620.2Z" transform="translate(-71.65 -49.53)"/><path class="cls-1" d="M361.68,673.13c-7-1.48-17.1-2.14-32.77-2.14-8.12,0-16.93.18-25.45.35s-17.13.35-25.07.35c-3.49,0-7.11-.07-10.95-.13s-8-.14-12-.14c-14.23,0-43.83,0-45.25,18.66a14.94,14.94,0,0,0,4.92,12.75c8.14,7.47,24.49,8.48,39.42,8.48,6.93,0,14.23-.26,21.28-.51s13.51-.48,19.64-.48l14.67,0c11.45,0,24.17.07,35,0,18.41-.17,35.8-.32,37.15-17C383.51,677.76,370.89,675.09,361.68,673.13Z" transform="translate(-71.65 -49.53)"/><path class="cls-1" d="M337.3,722l-.15,0c-4.64-1.25-12.83-1.79-27.38-1.79-5.4,0-11.2.08-16.8.14-4.44.06-8.85.11-13.05.13-18,.08-40.4.19-41.82,17-.46,5.45,1.11,9.89,4.68,13.19,6.51,6,18,7.22,34.45,7.22,2.88,0,5.85,0,8.87-.07s6.21-.07,9.35-.07c3.57,0,7.32.08,10.94.16s7.5.16,11.11.15c11.62,0,35.64,0,36.85-17.39C355.32,726.86,345.33,724.17,337.3,722Z" transform="translate(-71.65 -49.53)"/><path class="cls-1" d="M260.33,464.15a35.94,35.94,0,1,0,35.94-35.94A36,36,0,0,0,260.33,464.15Zm35.94,25.48a25.48,25.48,0,1,1,25.48-25.48A25.5,25.5,0,0,1,296.27,489.63Z" transform="translate(-71.65 -49.53)"/><path class="cls-1" d="M156.32,301.28a15.62,15.62,0,0,0,11.05-4.72,180.36,180.36,0,0,1,257.79,0,15.69,15.69,0,1,0,22.42-22,211.73,211.73,0,0,0-302.63,0,15.7,15.7,0,0,0,11.2,26.68Zm-3.9-19.36a201.28,201.28,0,0,1,287.69,0,5.24,5.24,0,0,1-.08,7.4,5.34,5.34,0,0,1-7.39-.08,190.84,190.84,0,0,0-272.75,0,5.15,5.15,0,0,1-3.68,1.57,5.23,5.23,0,0,1-3.79-8.89Z" transform="translate(-71.65 -49.53)"/><path class="cls-1" d="M407.66,330.52a155.22,155.22,0,0,0-222.78,0,15.69,15.69,0,1,0,22.5,21.87,123.86,123.86,0,0,1,177.77,0,15.69,15.69,0,0,0,22.19.32A15.72,15.72,0,0,0,407.66,330.52Zm-7.61,14.69a5.36,5.36,0,0,1-7.4-.11,134.29,134.29,0,0,0-192.77,0,5.23,5.23,0,1,1-7.5-7.29,144.76,144.76,0,0,1,207.78,0A5.25,5.25,0,0,1,400.05,345.21Z" transform="translate(-71.65 -49.53)"/><path class="cls-1" d="M359.76,418.87a15.68,15.68,0,0,0,11.34-26.53,103.44,103.44,0,0,0-149.67,0,15.69,15.69,0,0,0,11.33,26.53h.37a15.61,15.61,0,0,0,11-4.85,72,72,0,0,1,104.29,0A15.77,15.77,0,0,0,359.76,418.87ZM229.16,407a5.22,5.22,0,0,1-.17-7.39,93,93,0,0,1,134.55,0,5.22,5.22,0,0,1-.17,7.39,5.33,5.33,0,0,1-7.39-.17,82.51,82.51,0,0,0-119.42,0,5.2,5.2,0,0,1-3.67,1.61A5.28,5.28,0,0,1,229.16,407Z" transform="translate(-71.65 -49.53)"/></svg>