<?xml version="1.0" encoding="utf-8"?>
<!-- Generator: Adobe Illustrator 25.2.1, SVG Export Plug-In . SVG Version: 6.00 Build 0)  -->
<svg version="1.1" id="Layer_1" xmlns="http://www.w3.org/2000/svg" xmlns:xlink="http://www.w3.org/1999/xlink" x="0px" y="0px"
	 viewBox="0 0 1000 800" style="enable-background:new 0 0 1000 800;" xml:space="preserve">
<style type="text/css">
	.st0{fill:#231F20;}
</style>
<g>
	<path class="st0" d="M391.3,257.3c-0.6,0.6-0.9,1.3-0.8,2.1c0,1.6,1.4,3,3,2.9c0.8,0,1.5-0.3,2.1-0.9c0.5-0.5,1.1-1.1,1.6-1.6
		c42.7-41.8,111.2-41.1,153,1.6c1.2,1.1,3,1.2,4.2,0c1.2-1.1,1.2-3,0-4.2c-0.6-0.6-1.1-1.2-1.7-1.7
		C507.6,211.5,435.3,212.3,391.3,257.3z"/>
	<path class="st0" d="M472.8,346.1c-8,0-14.4,6.5-14.4,14.4c0,8,6.5,14.4,14.4,14.4c8,0,14.4-6.5,14.4-14.4
		C487.2,352.6,480.8,346.1,472.8,346.1z"/>
	<path class="st0" d="M529.9,287.2c-32.5-31.6-84.5-30.8-116,1.7c0,0,0,0-0.1,0.1c-1.1,1.2-1.1,3.1,0.1,4.2c1.2,1.1,3.1,1.1,4.2-0.1
		c0.5-0.6,1.1-1.1,1.6-1.6c30.2-29.3,78.4-28.5,107.6,1.6c1.2,1.1,3,1.2,4.2,0.1c1.2-1.1,1.2-3,0.1-4.2
		C531.1,288.4,530.5,287.8,529.9,287.2z"/>
	<path class="st0" d="M482.7,150.5c-3.2-0.3-6.5-0.4-9.6-0.4c-27.6,0-51.8,9.9-71.8,29.5c-15.7,15.3-33.6,41.8-30,80.5
		c2.3,24.5,18.2,45.5,32.2,64l2.4,3.2l4.2,5.6c18,23.7,35.1,46.1,39.9,81.2h45.4c3.9-33.3,20.6-55.1,38.3-78.2
		c2-2.6,3.9-5.1,5.9-7.7c1.1-1.5,2.3-3,3.4-4.5c16.6-21.9,33.8-44.6,31.3-80.8C570.8,194.3,531.4,154.5,482.7,150.5z M472.8,380.9
		c-11.2,0-20.4-9.1-20.4-20.4c0-11.2,9.1-20.4,20.4-20.4c11.2,0,20.4,9.1,20.4,20.4C493.2,371.8,484,380.9,472.8,380.9z
		 M508.8,334.9c-2.4,0-4.7-1-6.4-2.7c-0.5-0.5-0.9-1-1.4-1.4c-16.3-15.5-42.2-14.9-57.7,1.4c-1.6,1.7-3.9,2.7-6.2,2.7h-0.2
		c-2.3,0-4.5-0.9-6.1-2.5c-3.6-3.4-3.7-9-0.3-12.6c0.6-0.7,1.3-1.3,1.9-1.9c23.4-22.4,60.5-21.5,82.9,1.9c1.6,1.7,2.5,3.9,2.5,6.2
		C517.7,330.9,513.7,334.9,508.8,334.9z M535.7,297.4C535.7,297.4,535.7,297.4,535.7,297.4c-3.5,3.4-9.2,3.3-12.6-0.2
		c-0.5-0.5-1-1-1.5-1.5c-27.8-27-72.3-26.3-99.3,1.5c-0.1,0.1-0.1,0.1-0.2,0.2c-3.5,3.5-9.1,3.5-12.6,0c-3.5-3.5-3.5-9.1,0-12.6
		c0.6-0.6,1.2-1.3,1.9-1.9c34.9-33.8,90.6-33,124.4,1.9C539.3,288.4,539.3,294,535.7,297.4z M558.4,265.7c-3.5,3.4-9.1,3.4-12.6-0.1
		c-0.5-0.5-1-1-1.6-1.6c-40.3-39.5-105.1-38.8-144.6,1.6c-1.6,1.7-3.9,2.7-6.3,2.7l-0.1,0c-2.3,0-4.6-0.9-6.2-2.5
		c-3.5-3.4-3.6-9.1-0.1-12.6c0.6-0.6,1.2-1.2,1.8-1.8c47.4-46.4,123.3-45.5,169.7,1.8C562,256.6,561.9,262.3,558.4,265.7z"/>
	<path class="st0" d="M473,53.7c-0.1,0-0.1,0-0.2,0c-0.1,0-0.1,0-0.2,0C339.7,53.8,232,161.6,232,294.4c0,42.1,10.8,81.6,29.7,115.9
		l211.1,322l211.1-322c18.9-34.3,29.7-73.8,29.7-115.9C713.6,161.6,605.9,53.8,473,53.7z M505.7,517.3c-0.7,9.9-14.3,9.9-20.9,9.9
		c-2,0-4.2,0-6.3-0.1c-2.1,0-4.2-0.1-6.2-0.1c-1.8,0-3.6,0-5.3,0c-1.7,0-3.4,0-5,0c-9.3,0-15.8-0.7-19.5-4.1c-2-1.9-2.9-4.4-2.7-7.5
		c0.8-9.5,13.5-9.6,23.7-9.6c2.4,0,4.9,0,7.4-0.1c3.2,0,6.5-0.1,9.5-0.1c8.2,0,12.9,0.3,15.5,1h0.1
		C500.6,507.9,506.3,509.5,505.7,517.3z M521.5,490.4c-0.8,9.5-10.6,9.5-21.1,9.6c-6.1,0-13.3,0-19.8,0h-8.3
		c-3.5,0-7.1,0.1-11.1,0.3c-4,0.1-8.1,0.3-12.1,0.3c-8.5,0-17.7-0.6-22.3-4.8c-2-1.8-3.1-4.5-2.8-7.2c0.8-10.6,17.6-10.6,25.6-10.6
		c2.3,0,4.6,0,6.8,0.1c2.2,0,4.2,0.1,6.2,0.1c4.5,0,9.4-0.1,14.2-0.2c4.8-0.1,9.8-0.2,14.4-0.2c8.9,0,14.6,0.4,18.6,1.2
		C515.1,480.1,522.2,481.6,521.5,490.4z M521.5,460.4c-0.8,9.5-10.6,9.5-21.1,9.6c-6.1,0-13.3,0-19.8,0h-8.3
		c-3.5,0-7.1,0.1-11.1,0.3c-4,0.1-8.1,0.3-12.1,0.3c-8.5,0-17.7-0.6-22.3-4.8c-2-1.8-3.1-4.5-2.8-7.2c0.8-10.6,17.6-10.6,25.6-10.6
		c2.3,0,4.6,0,6.8,0.1c2.2,0,4.2,0.1,6.2,0.1c4.5,0,9.4-0.1,14.2-0.2c4.8-0.1,9.8-0.2,14.4-0.2c8.9,0,14.6,0.4,18.6,1.2
		C515.1,450.1,522.2,451.6,521.5,460.4z M599.7,259.7c-2.5,32.4-18.8,54.3-34.5,75.4c-1.3,1.7-2.5,3.3-3.8,5.1
		c-2.4,3.2-4.8,6.4-7.5,9.7c-5.7,7.3-11.6,14.8-17,23.5c-8.7,13.8-17.5,32.2-16.3,40.4c0.2,1.7,1.3,3,2.6,4.6
		c2.3,2.7,5.1,6.2,3.5,12.3c-2.2,8.1-12.2,8.1-22,8.1H443c-11.8,0-22.1,0-24.2-8.1c-1.7-6.3,0.9-9.2,3-11.5c1.5-1.7,2.8-3.1,3.1-6.1
		c0.4-4.2-3.1-12.3-6-18.8l-0.8-1.8c-7-16.1-16.8-28.7-26.3-40.9c-3-3.9-5.9-7.6-8.6-11.3l-0.7-0.9c-15.3-21-34.4-47.2-36.7-80.4
		c-3.2-45.1,18.7-77.1,37.7-96.1c17-17,45.9-37.2,87.7-37.2c3.3,0,6.7,0.1,10.1,0.4c20.2,1.6,35.2,5.6,50.2,13.5
		c15.5,8.1,26.8,19.1,35,27.8C580.4,182.1,603.3,213.8,599.7,259.7z"/>
	<path class="st0" d="M509.2,322.2c-21.1-20.1-54.4-19.3-74.5,1.7c0,0,0,0,0,0c-1.1,1.2-1.1,3.1,0.1,4.2c0.6,0.5,1.3,0.8,2.1,0.8
		c0.8,0,1.5-0.3,2.1-0.9c0.5-0.5,1-1.1,1.6-1.6c18.7-17.8,48.3-17.1,66.1,1.6c1.1,1.2,3,1.2,4.2,0.1c0,0,0,0,0,0
		c1.2-1.1,1.2-3,0.1-4.2C510.3,323.4,509.8,322.8,509.2,322.2z"/>
</g>
</svg>
