<?xml version="1.0" encoding="utf-8"?>
<!-- Generator: Adobe Illustrator 25.2.1, SVG Export Plug-In . SVG Version: 6.00 Build 0)  -->
<svg version="1.1" id="Camada_1" xmlns="http://www.w3.org/2000/svg" xmlns:xlink="http://www.w3.org/1999/xlink" x="0px" y="0px"
	 viewBox="0 0 449.2 708.5" style="enable-background:new 0 0 449.2 708.5;" xml:space="preserve">
<style type="text/css">
	.st0{fill:#FFDA00;}
</style>
<path class="st0" d="M390,73.5c-14.3-15.3-34.3-34.7-61.7-49c-26.5-13.9-53-21-88.6-23.8c-6-0.5-12-0.7-17.9-0.7
	C148.1,0,97,35.7,67,65.6c-33.5,33.5-72.2,90-66.5,169.5C4.8,293.8,38.4,339.9,65.4,377l1.1,1.6c4.8,6.6,9.8,13.1,15.1,20
	c16.7,21.6,34,43.9,46.4,72.2l1.4,3.2c5.1,11.5,11.4,25.8,10.6,33.2c-0.5,5.3-2.8,7.8-5.4,10.8c-3.6,4.1-8.2,9.3-5.3,20.3
	c3.8,14.3,21.8,14.3,42.7,14.3h108.9c17.2,0,35,0,38.8-14.3c2.9-10.8-2.1-16.8-6.1-21.7c-2.2-2.8-4.2-5.1-4.6-8.1
	c-2-14.4,13.5-47,28.8-71.3c9.6-15.3,20-28.6,30-41.5c4.6-5.9,9-11.6,13.2-17.2c2.2-3,4.4-5.9,6.6-8.9c27.8-37.2,56.5-75.8,60.9-133
	C454.8,155.7,414.6,99.7,390,73.5z M348.5,349.7c-2,2.6-4,5.2-6,7.9c-3.4,4.6-6.9,9.2-10.4,13.7c-31.2,40.8-60.7,79.3-67.6,138
	h-80.1c-8.6-62-38.6-101.5-70.4-143.4l-7.5-9.8l-4.2-5.7c-24.8-32.7-52.8-69.7-56.8-113c-6.4-68.3,25.2-114.9,52.9-142
	c35.3-34.6,77.9-52.1,126.7-52.1c5.6,0,11.3,0.2,17,0.7c86,7,155.5,77.2,161.6,163.1C408.2,271,377.9,311,348.5,349.7z"/>
<path class="st0" d="M290,570.7c-7-1.5-17.1-2.2-32.8-2.2c-8.1,0-16.9,0.2-25.5,0.3s-17.1,0.3-25.1,0.3c-3.5,0-7.1-0.1-11-0.1
	s-8-0.1-12-0.1c-14.2,0-43.8,0-45.2,18.7c-0.5,4.8,1.3,9.5,4.9,12.8c8.1,7.5,24.5,8.5,39.4,8.5c6.9,0,14.2-0.3,21.3-0.5
	s13.5-0.5,19.6-0.5h14.7c11.5,0,24.2,0.1,35,0c18.4-0.2,35.8-0.3,37.1-17C311.9,575.3,299.2,572.6,290,570.7z"/>
<path class="st0" d="M290,623.6c-7-1.5-17.1-2.1-32.8-2.1c-8.1,0-16.9,0.2-25.5,0.3s-17.1,0.3-25.1,0.3c-3.5,0-7.1-0.1-11-0.1
	s-8-0.1-12-0.1c-14.2,0-43.8,0-45.2,18.7c-0.5,4.8,1.3,9.5,4.9,12.8c8.1,7.5,24.5,8.5,39.4,8.5c6.9,0,14.2-0.3,21.3-0.5
	s13.5-0.5,19.6-0.5h14.7c11.5,0,24.2,0.1,35,0c18.4-0.2,35.8-0.3,37.1-17C311.9,628.2,299.2,625.6,290,623.6z"/>
<path class="st0" d="M265.6,672.5h-0.1c-4.6-1.2-12.8-1.8-27.4-1.8c-5.4,0-11.2,0.1-16.8,0.1c-4.4,0.1-8.9,0.1-13,0.1
	c-18,0.1-40.4,0.2-41.8,17c-0.5,5.5,1.1,9.9,4.7,13.2c6.5,6,18,7.2,34.5,7.2c2.9,0,5.9,0,8.9-0.1s6.2-0.1,9.4-0.1
	c3.6,0,7.3,0.1,10.9,0.2s7.5,0.2,11.1,0.2c11.6,0,35.6,0,36.9-17.4C283.7,677.3,273.7,674.6,265.6,672.5z"/>
<path class="st0" d="M188.7,414.6c0,19.8,16.1,35.9,35.9,35.9s35.9-16.1,35.9-35.9s-16.1-35.9-35.9-35.9
	C204.8,378.7,188.7,394.8,188.7,414.6z M224.6,440.1c-14.1,0-25.5-11.4-25.5-25.5s11.4-25.5,25.5-25.5c14.1,0,25.5,11.4,25.5,25.5
	C250.1,428.7,238.7,440.1,224.6,440.1z"/>
<path class="st0" d="M84.7,251.7c4.2,0,8.1-1.7,11.1-4.7c69.7-71.2,183.9-72.4,255.1-2.7c0.9,0.9,1.8,1.8,2.7,2.7
	c6.1,6.2,16,6.3,22.2,0.2c6.2-6.1,6.3-16,0.2-22.2c-81.8-83.6-215.8-85-299.4-3.2c-1.1,1.1-2.2,2.1-3.2,3.2
	c-6.1,6.2-6,16.1,0.2,22.2c2.9,2.9,6.9,4.5,11,4.5L84.7,251.7z M80.8,232.4c77.8-79.4,205.2-80.8,284.6-3.1c1,1,2,2,3.1,3.1
	c2,2.1,2,5.4-0.1,7.4c-2.1,2-5.3,1.9-7.4-0.1c-73.7-75.3-194.6-76.6-269.9-2.9c-1,0.9-1.9,1.9-2.9,2.9c-1,1-2.3,1.6-3.7,1.6
	c-2.9,0-5.3-2.3-5.3-5.2C79.3,234.7,79.8,233.4,80.8,232.4L80.8,232.4z"/>
<path class="st0" d="M336,281c-59.7-61.5-158-63-219.5-3.3c-1.1,1.1-2.2,2.2-3.3,3.3c-6.1,6.1-6.1,16.1,0,22.2s16.1,6.1,22.2,0
	c0.1-0.1,0.2-0.2,0.3-0.3c47.6-49.1,126.1-50.3,175.1-2.6c0.9,0.9,1.8,1.7,2.6,2.6c6,6.2,16,6.4,22.2,0.3c0,0,0,0,0,0
	C341.9,297.1,342,287.2,336,281z M328.4,295.7c-2.1,1.9-5.4,1.9-7.4-0.1c-51.6-53.2-136.7-54.5-189.9-2.9c-1,0.9-1.9,1.9-2.9,2.9
	c-2,2.1-5.3,2.2-7.4,0.2c-2.1-2-2.2-5.3-0.2-7.4c0,0,0.1-0.1,0.1-0.1c55.7-57.4,147.3-58.8,204.7-3.1c1,1,2.1,2,3.1,3.1
	C330.5,290.4,330.5,293.7,328.4,295.7L328.4,295.7z"/>
<path class="st0" d="M288.1,369.3c8.7,0,15.7-7,15.7-15.7c0-4.1-1.6-7.9-4.4-10.9c-39.4-41.3-104.9-42.9-146.2-3.4
	c-1.2,1.1-2.3,2.3-3.4,3.4c-6,6.3-5.8,16.2,0.5,22.2c2.9,2.8,6.8,4.3,10.8,4.3h0.4c4.2-0.1,8.1-1.8,11-4.9
	c27.4-28.8,73-29.9,101.8-2.5c0.9,0.8,1.7,1.6,2.5,2.5C279.7,367.6,283.8,369.3,288.1,369.3z M157.5,357.5c-2.1-2-2.2-5.3-0.2-7.4
	c0,0,0,0,0,0c35.5-37.2,94.3-38.5,131.5-3.1c1,1,2.1,2,3.1,3.1c2,2.1,1.9,5.4-0.2,7.4c0,0,0,0,0,0c-2.1,1.9-5.4,1.9-7.4-0.2
	c-31.4-33-83.7-34.2-116.7-2.8c-0.9,0.9-1.9,1.8-2.8,2.8c-1,1-2.3,1.6-3.7,1.6C159.9,358.9,158.5,358.4,157.5,357.5z"/>
</svg>
